<svg width="332" height="100" viewBox="0 0 332 100" fill="none" xmlns="http://www.w3.org/2000/svg">
<g clip-path="url(#clip0_2123_395)">
<path d="M0.103516 78.2362V0H14.8579V44.5075H23.5553L36.8083 23.6204H52.9605L37.8955 46.7767C42.5548 48.6849 46.1787 51.6761 48.7672 55.6988C51.3557 59.7215 52.6499 64.1568 52.6499 69.1078V78.3393H37.8955V69.1078C37.8955 66.8901 37.326 64.8788 36.2389 63.0737C35.0999 61.2687 33.6504 59.8247 31.8902 58.7416C30.0783 57.6586 28.111 57.1429 25.8849 57.1429H14.9097V78.3909H0.103516V78.2362Z" fill="#0047BB"></path>
<path d="M91.3738 79.5259C85.7309 79.5259 80.6575 78.2366 76.2053 75.7095C71.7531 73.1824 68.2327 69.727 65.6442 65.3949C63.0557 61.0628 61.7615 56.2149 61.7615 50.8513C61.7615 45.4877 63.0557 40.6399 65.6442 36.3078C68.2327 31.9756 71.7531 28.5718 76.2053 25.9932C80.6575 23.4661 85.7309 22.1768 91.3738 22.1768C97.0167 22.1768 102.09 23.4661 106.542 25.9932C110.995 28.5202 114.515 31.9756 117.103 36.3078C119.692 40.6399 120.986 45.4877 120.986 50.8513C120.986 56.2149 119.692 61.0628 117.103 65.3949C114.515 69.727 110.995 73.1309 106.542 75.7095C102.09 78.2366 97.0167 79.5259 91.3738 79.5259ZM91.3738 66.9937C94.3765 66.9937 96.965 66.2716 99.1911 64.8276C101.365 63.3836 103.074 61.4754 104.265 59.0514C105.455 56.6275 106.025 53.8941 106.025 50.9029C106.025 47.9117 105.455 45.1783 104.265 42.7544C103.074 40.3304 101.417 38.3707 99.1911 36.9782C97.0167 35.5342 94.4282 34.8121 91.3738 34.8121C88.3194 34.8121 85.7827 35.5342 83.5566 36.9782C81.3822 38.4222 79.6738 40.3304 78.4831 42.7544C77.2924 45.1783 76.723 47.9117 76.723 50.9029C76.723 53.8941 77.2924 56.6275 78.4831 59.0514C79.6738 61.4754 81.3305 63.4351 83.5566 64.8276C85.7309 66.2716 88.3194 66.9937 91.3738 66.9937Z" fill="#0047BB"></path>
<path d="M132.272 78.236V45.745C132.272 41.4644 133.307 37.5449 135.378 33.9348C137.449 30.3763 140.452 27.5397 144.386 25.4252C148.321 23.3108 153.032 22.2793 158.519 22.2793C161.16 22.2793 163.645 22.5887 165.871 23.2076C168.148 23.8265 170.219 24.7032 172.187 25.8378C174.102 26.9724 175.81 28.3649 177.26 29.9121H177.363C178.865 28.3649 180.573 26.9724 182.54 25.8378C184.456 24.7032 186.579 23.8265 188.908 23.2076C191.186 22.5887 193.671 22.2793 196.311 22.2793C201.851 22.2793 206.562 23.3108 210.444 25.4252C214.379 27.5397 217.33 30.3763 219.452 33.9348C221.523 37.4933 222.559 41.4644 222.559 45.745V78.236H207.804V45.745C207.804 43.7337 207.286 41.9286 206.251 40.2783C205.216 38.6279 203.818 37.3386 202.109 36.3071C200.401 35.3273 198.434 34.8115 196.311 34.8115C194.189 34.8115 192.325 35.3273 190.565 36.3071C188.805 37.287 187.407 38.6279 186.371 40.2783C185.336 41.9286 184.818 43.7337 184.818 45.745V78.236H170.064V45.745C170.064 43.7337 169.546 41.9286 168.511 40.2783C167.475 38.6279 166.078 37.3386 164.369 36.3071C162.661 35.3273 160.694 34.8115 158.571 34.8115C156.448 34.8115 154.585 35.3273 152.825 36.3071C151.064 37.287 149.667 38.6279 148.631 40.2783C147.596 41.9286 147.078 43.7337 147.078 45.745V78.236H132.324H132.272Z" fill="#0047BB"></path>
<path d="M240.73 78.2364V36.1528H231.152V23.6206H240.73V15.5752C240.73 10.7274 242.128 6.91096 244.871 4.1776C247.615 1.44423 251.446 0.0517578 256.312 0.0517578H271.895V12.584H258.849C257.917 12.584 257.089 12.8934 256.416 13.5639C255.743 14.1828 255.381 15.0079 255.381 16.0394V23.6722H269.462V36.2044H255.381V78.3395H240.626L240.73 78.2364Z" fill="#0047BB"></path>
<path d="M285.718 100V87.4683H313.932C314.916 87.4683 315.744 87.1072 316.417 86.4368C317.039 85.7663 317.401 84.9412 317.401 84.0129V73.0794H317.297C315.02 74.8844 312.535 76.1738 309.894 76.9989C307.254 77.8241 304.614 78.2367 302.025 78.2367C296.797 78.2367 292.396 77.1537 288.876 74.936C285.355 72.7184 282.767 69.7787 281.007 66.0139C279.298 62.3006 278.418 58.1748 278.418 53.688V23.5693H293.173V53.688C293.173 55.9056 293.69 57.9169 294.777 59.722C295.865 61.527 297.314 62.9711 299.126 64.0541C300.938 65.1372 302.957 65.6529 305.183 65.6529C307.409 65.6529 309.428 65.1372 311.189 64.1057C313 63.0742 314.45 61.6818 315.537 59.9283C316.624 58.1748 317.194 56.215 317.194 54.1005V23.5693H331.948V84.477C331.948 89.2733 330.602 93.0381 327.858 95.8231C325.115 98.608 321.335 100 316.469 100H285.718Z" fill="#0047BB"></path>
<path d="M52.9606 87.4678H0V100H52.9606V87.4678Z" fill="#FFA400"></path>
</g>
<defs>
<clipPath id="clip0_2123_395">
<rect width="332" height="100" fill="white"></rect>
</clipPath>
</defs>
</svg>