<svg xmlns="http://www.w3.org/2000/svg" viewBox="0 0 180 180">
  <rect width="180" height="180" rx="40" fill="#FAF0E6"/>
  <g transform="translate(63.5 40) scale(1.0)">
    <path fill="#1C1C1C" d="M0.103516 78.2362V0H14.8579V44.5075H23.5553L36.8083 23.6204H52.9605L37.8955 46.7767C42.5548 48.6849 46.1787 51.6761 48.7672 55.6988C51.3557 59.7215 52.6499 64.1568 52.6499 69.1078V78.3393H37.8955V69.1078C37.8955 66.8901 37.326 64.8788 36.2389 63.0737C35.0999 61.2687 33.6504 59.8247 31.8902 58.7416C30.0783 57.6586 28.111 57.1429 25.8849 57.1429H14.9097V78.3909H0.103516V78.2362Z"/>
    <path fill="#FFA400" d="M52.9606 87.4678H0V100H52.9606V87.4678Z"/>
  </g>
</svg>
